<svg xmlns="http://www.w3.org/2000/svg" width="72.415" height="69.916" viewBox="0 0 72.415 69.916">
  <g id="Group_301" data-name="Group 301" transform="translate(-1358.718 833.824) rotate(-45)">
    <path id="Path_280" data-name="Path 280" d="M1530.532,395.658c1.3.193,2.021,1.2,2.841,2.056q3.71,3.857,7.4,7.736,4.88,5.108,9.755,10.222a.458.458,0,0,0,.544.163,8.225,8.225,0,0,1,10.463,6.391,7.937,7.937,0,0,1-.584,4.882c-.015.034-.051.059-.1.117l-2.24-3.127q-.883-1.233-1.766-2.467a2.163,2.163,0,0,0-3.081-.575q-1.589,1.081-3.124,2.238a2.217,2.217,0,0,0-.294,3.068c1.289,1.756,2.546,3.535,3.816,5.305.047.067.083.143.193.337-.465,0-.843.01-1.22,0a8.288,8.288,0,0,1-7.92-7.265,7.857,7.857,0,0,1,.55-4.062.435.435,0,0,0-.119-.579q-6.28-5.979-12.545-11.973-3.157-3.018-6.3-6.048a2.9,2.9,0,0,1-.04-4.23c.3-.306.618-.595.9-.913a3.853,3.853,0,0,1,2.016-1.274Zm-1.886,4.6a1.81,1.81,0,0,0,1.791,1.833,1.868,1.868,0,0,0,1.876-1.815,1.912,1.912,0,0,0-1.843-1.87A1.831,1.831,0,0,0,1528.646,400.254Z" transform="translate(0 0)" fill="#1babcc"/>
    <path id="Path_281" data-name="Path 281" d="M1570.033,412.433a20.31,20.31,0,0,1,2.99,7.2c1,.123,2,.247,3,.367.522.063,1.047.106,1.567.186.1.015.249.164.25.251.014,2.211.011,4.421.011,6.653l-3.931.456a3.087,3.087,0,0,0-.714.106.555.555,0,0,0-.262.368,20.326,20.326,0,0,1-2.608,6.392c-.081.133-.165.266-.245.4a.457.457,0,0,0-.03.089l2.916,3.721-4.873,4.871-3.748-2.938a19.681,19.681,0,0,1-4.628,2.277c-.754.249-1.522.463-2.3.64a.352.352,0,0,0-.327.354c-.1.82-.19,1.64-.288,2.459-.082.688-.17,1.376-.257,2.073h-6.853c-.087-.671-.179-1.342-.26-2.014-.1-.82-.192-1.64-.272-2.462-.029-.3-.18-.364-.456-.427a19.809,19.809,0,0,1-6.6-2.776c-.058-.039-.125-.067-.219-.117l-3.744,2.937-4.872-4.872,2.9-3.7c-.52-.981-1.111-1.91-1.521-2.913-.523-1.281-.912-2.619-1.329-3.941-.092-.291-.165-.424-.514-.46-1.456-.145-2.906-.348-4.39-.533-.009-.14-.024-.278-.024-.417,0-2,.007-4-.009-6,0-.364.093-.468.471-.506,1.443-.144,2.881-.343,4.263-.514l1.6-4.8,5.45,4.187c-.21,1.068-.459,2.072-.6,3.092a12.414,12.414,0,0,0,.667,6.047,13.249,13.249,0,0,0,10.175,8.856,13.624,13.624,0,0,0,16.148-11.1,13.652,13.652,0,0,0-10.943-15.686,13.749,13.749,0,0,0-6.5.351.5.5,0,0,1-.424-.1c-1.519-1.646-3.023-3.3-4.567-5a19.711,19.711,0,0,1,4.968-1.718l.59-4.829h6.857c.2,1.594.391,3.2.581,4.755,1.1.345,2.2.6,3.219,1.031,1.275.54,2.493,1.217,3.721,1.863a.389.389,0,0,0,.516-.026c1.183-.939,2.375-1.865,3.531-2.769l4.871,4.863Z" transform="translate(-0.997 -1.283)" fill="#1babcc"/>
  </g>
</svg>
