<svg xmlns="http://www.w3.org/2000/svg" width="65.58" height="65.58" viewBox="0 0 65.58 65.58">
  <g id="Group_284" data-name="Group 284" transform="translate(-1652.238 -392.671)">
    <path id="Path_282" data-name="Path 282" d="M1703.99,460.7c-.379-.082-.762-.148-1.135-.248a6.189,6.189,0,0,1-2.752-1.633q-4.33-4.257-8.661-8.514c-1.143-1.123-2.281-2.252-3.435-3.364a3.945,3.945,0,0,1-1.052-2.492,5.935,5.935,0,0,0-5.647-5.223,3.049,3.049,0,0,1-2.955-2.9,2.871,2.871,0,0,1,.863-2.222c.622-.649,1.248-1.294,1.889-1.957-.04-.045-.106-.125-.18-.2q-4.556-4.586-9.113-9.171-4.717-4.753-9.43-9.511c-.225-.227-.458-.448-.676-.683a3.134,3.134,0,0,0-1.908-1,3.763,3.763,0,0,1-2.51-1.4c-1.49-1.877-3.017-3.724-4.515-5.594a7.109,7.109,0,0,1-.535-.91v-.428q.725-.817,1.453-1.632c.071-.08.154-.148.231-.223.7-.692,1.153-.773,1.933-.173,2.107,1.62,4.191,3.269,6.269,4.925a3.248,3.248,0,0,1,1.067,2.189,3.122,3.122,0,0,0,1.035,1.849q4.314,4.119,8.62,8.245l10.727,10.267.594.568c.606-.595,1.206-1.179,1.8-1.769a3.326,3.326,0,0,1,1.858-.965,3.076,3.076,0,0,1,3.479,2.77,6.016,6.016,0,0,0,5.222,5.661,2.755,2.755,0,0,0,.317.048,3.686,3.686,0,0,1,2.568,1.207c2.517,2.5,5.056,4.982,7.586,7.47,1.439,1.416,2.872,2.837,4.319,4.245a5.963,5.963,0,0,1,.119,8.526c-.837.858-1.707,1.683-2.568,2.518a5.938,5.938,0,0,1-3.534,1.671,1.252,1.252,0,0,0-.2.059Z" transform="translate(0 -2.452)" fill="#1babcc"/>
    <path id="Path_283" data-name="Path 283" d="M1730.13,407.355c-.115.749-.189,1.506-.354,2.244a14.129,14.129,0,0,1-14.514,10.908c-.894-.058-1.776-.284-2.667-.4a3.151,3.151,0,0,0-2.688.853c-1.234,1.166-2.431,2.371-3.644,3.56-.109.107-.223.21-.361.34a5.671,5.671,0,0,0-4.256-3.335,5.771,5.771,0,0,0-5.192,1.571l-3.308-3.167c.89-.911,1.749-1.812,2.631-2.69,1.785-1.776,3.586-3.534,5.371-5.309a3.306,3.306,0,0,0,.881-3.079,13.3,13.3,0,0,1,2.372-10.253,13.913,13.913,0,0,1,9.529-5.771c.431-.068.868-.1,1.3-.152h1.5a3.482,3.482,0,0,0,.346.061,13.753,13.753,0,0,1,6.425,2.082c.649.4,1.252.881,1.925,1.36l-1.305.7q-5.208,2.812-10.418,5.621a.405.405,0,0,0-.267.4q-.043,2.7-.121,5.408a.518.518,0,0,0,.3.527c1.552.914,3.1,1.832,4.643,2.767a.531.531,0,0,0,.61.029q4.639-2.521,9.285-5.027c.629-.34,1.263-.672,1.9-1.01l.08.2Z" transform="translate(-12.312 0)" fill="#1babcc"/>
    <path id="Path_284" data-name="Path 284" d="M1679.449,453.512c-.534.555-1.046,1.114-1.585,1.643q-6.882,6.768-13.779,13.519a6.072,6.072,0,0,1-6.252,1.525,6.142,6.142,0,0,1-2.584-10.37q5.53-5.45,11.08-10.879,3.966-3.893,7.927-7.789c.051-.05.1-.1.137-.129l3.314,3.216a5.536,5.536,0,0,0-1.6,5.106A5.722,5.722,0,0,0,1679.449,453.512Z" transform="translate(-0.324 -14.555)" fill="#1babcc"/>
  </g>
</svg>
