<svg xmlns="http://www.w3.org/2000/svg" width="98.165" height="90.419" viewBox="0 0 98.165 90.419">
  <g id="Group_322" data-name="Group 322" transform="translate(-1590.875 -3053.713)">
    <g id="Group_315" data-name="Group 315" transform="translate(367.866 2677.901)">
      <path id="Path_246" data-name="Path 246" d="M1288.75,399.843c.423.113.855.2,1.267.343a5.972,5.972,0,0,1,3.618,3.146q3.635,7.606,7.313,15.192a10.474,10.474,0,0,1,1.045,4.629q-.008,7.189,0,14.378c0,1.261-.434,1.693-1.679,1.7-1.7,0-3.393.007-5.09,0-1.137,0-1.552-.423-1.563-1.567-.01-1.1,0-2.2,0-3.337h-31.789c-.018.273-.048.53-.05.787-.007.91.016,1.82-.012,2.729a1.252,1.252,0,0,1-1.316,1.373q-2.839.044-5.679,0c-.843-.014-1.3-.559-1.315-1.461-.016-1.253-.005-2.507-.005-3.76,0-3.564.018-7.128-.008-10.692a10.848,10.848,0,0,1,1.113-4.905q3.584-7.385,7.123-14.793a6.286,6.286,0,0,1,4.767-3.651,1.647,1.647,0,0,0,.273-.1Zm6.382,18.389c-.095-.243-.145-.4-.217-.551-1.6-3.342-3.239-6.665-4.786-10.03a4.243,4.243,0,0,0-4.247-2.768q-8.186.063-16.37,0a4.06,4.06,0,0,0-4.115,2.682c-1.494,3.335-3.142,6.6-4.723,9.9-.111.231-.2.47-.333.769Zm-.936,4.014a3.738,3.738,0,1,0-.057,7.475,3.737,3.737,0,0,0,.057-7.475Zm-32.814-.011a3.73,3.73,0,1,0-.066,7.459,3.73,3.73,0,1,0,.066-7.459Z" transform="translate(-5.542 27)" fill="#1babcc"/>
    </g>
    <g id="Group_289" data-name="Group 289" transform="translate(-147.512 2671.021)">
      <path id="Path_285" data-name="Path 285" d="M1788.9,382.693a23.506,23.506,0,1,1-23.54,23.5A23.556,23.556,0,0,1,1788.9,382.693Zm18.726,23.584a18.766,18.766,0,1,0-18.858,18.694A18.816,18.816,0,0,0,1807.626,406.277Z" transform="translate(0 0)" fill="#1babcc"/>
      <path id="Path_221" data-name="Path 221" d="M1180.993,250.479c1.046-1.016,2.07-2.015,3.1-3.01q4.143-4,8.291-8a2.572,2.572,0,0,1,3.6.047,2.52,2.52,0,0,1-.055,3.535c-1.174,1.172-2.382,2.31-3.57,3.467q-4.68,4.557-9.354,9.12a2.574,2.574,0,0,1-3.333.544,2.793,2.793,0,0,1-.509-.4q-2.94-2.946-5.873-5.9a2.619,2.619,0,0,1,.072-3.843,2.539,2.539,0,0,1,3.438.216q2.013,2.023,4.016,4.056C1180.863,250.36,1180.913,250.405,1180.993,250.479Z" transform="translate(604.901 159.838)" fill="#1babcc"/>
      <path id="Path_399" data-name="Path 399" d="M1180.993,250.479c1.046-1.016,2.07-2.015,3.1-3.01q4.143-4,8.291-8a2.572,2.572,0,0,1,3.6.047,2.52,2.52,0,0,1-.055,3.535c-1.174,1.172-2.382,2.31-3.57,3.467q-4.68,4.557-9.354,9.12a2.574,2.574,0,0,1-3.333.544,2.793,2.793,0,0,1-.509-.4q-2.94-2.946-5.873-5.9a2.619,2.619,0,0,1,.072-3.843,2.539,2.539,0,0,1,3.438.216q2.013,2.023,4.016,4.056C1180.863,250.36,1180.913,250.405,1180.993,250.479Z" transform="translate(565.901 190.945)" fill="#1babcc"/>
      <path id="Path_400" data-name="Path 400" d="M1180.993,250.479c1.046-1.016,2.07-2.015,3.1-3.01q4.143-4,8.291-8a2.572,2.572,0,0,1,3.6.047,2.52,2.52,0,0,1-.055,3.535c-1.174,1.172-2.382,2.31-3.57,3.467q-4.68,4.557-9.354,9.12a2.574,2.574,0,0,1-3.333.544,2.793,2.793,0,0,1-.509-.4q-2.94-2.946-5.873-5.9a2.619,2.619,0,0,1,.072-3.843,2.539,2.539,0,0,1,3.438.216q2.013,2.023,4.016,4.056C1180.863,250.36,1180.913,250.405,1180.993,250.479Z" transform="translate(639.872 190.945)" fill="#1babcc"/>
    </g>
  </g>
</svg>
