<svg xmlns="http://www.w3.org/2000/svg" width="65.864" height="78.276" viewBox="0 0 65.864 78.276">
  <g id="Group_294" data-name="Group 294" transform="translate(-818.452 -711.786)">
    <path id="Path_299" data-name="Path 299" d="M818.452,797.883V778.32c.047-.185.109-.369.138-.557a10.161,10.161,0,0,1,4.011-6.681,1.986,1.986,0,0,0,.607-.872q2.459-6.935,4.881-13.883a10.179,10.179,0,0,1,10.124-7.175q13.159-.006,26.32,0a10.173,10.173,0,0,1,10.132,7.164c1.626,4.628,3.24,9.261,4.885,13.883a2.288,2.288,0,0,0,.713.969,9.715,9.715,0,0,1,3.991,7.692c.1,6.172.061,12.346.017,18.52a4.959,4.959,0,0,1-4.154,4.813,3.2,3.2,0,0,0-.41.137h-1.038c-.037-.031-.069-.079-.111-.09-3.065-.768-4.383-2.444-4.387-5.586,0-.856,0-1.713,0-2.655a390.105,390.105,0,0,1-45.6-.007c0,1.238.034,2.322-.007,3.4a4.986,4.986,0,0,1-4.078,4.792,3.085,3.085,0,0,0-.4.144H823.05a6.451,6.451,0,0,1-3-1.439A6.126,6.126,0,0,1,818.452,797.883Zm32.924-43.671c-4.448,0-8.9-.009-13.345,0a4.821,4.821,0,0,0-4.872,3.084c-1.121,2.842-2.067,5.752-3.06,8.643a1.649,1.649,0,0,0,.869,2.121,3.4,3.4,0,0,0,1.655.135,116.929,116.929,0,0,1,15.5-1.286,126.417,126.417,0,0,1,22.091,1.306c2.02.318,2.955-.848,2.282-2.773q-1.28-3.665-2.565-7.329a5.147,5.147,0,0,0-5.5-3.9Q857.9,754.21,851.376,754.212Zm.077,22.774q-3.707,0-7.413,0a2.535,2.535,0,1,0,0,5.048q7.34.006,14.679,0a2.535,2.535,0,1,0,0-5.048Q855.085,776.98,851.453,776.986Zm-21.6,7.573a3.786,3.786,0,1,0,.023-7.571,3.786,3.786,0,1,0-.023,7.571Zm43.05,0a3.786,3.786,0,1,0-3.8-3.813A3.8,3.8,0,0,0,872.9,784.559Z" transform="translate(0 -12.266)" fill="#1babcc"/>
    <path id="Path_300" data-name="Path 300" d="M864.579,711.786c2.335,2.871,4.513,5.621,5.646,9.012a5.764,5.764,0,0,1-2.157,6.6,6.036,6.036,0,0,1-6.892.044,5.566,5.566,0,0,1-2.2-6.567,44.583,44.583,0,0,1,3.315-6.1A32.642,32.642,0,0,1,864.579,711.786Z" transform="translate(-13.185)" fill="#1babcc"/>
    <path id="Path_301" data-name="Path 301" d="M894.235,711.833c2.28,2.779,4.414,5.49,5.571,8.792a5.862,5.862,0,0,1-4.026,7.7,5.947,5.947,0,0,1-7.354-4.417,6.089,6.089,0,0,1,.469-4A33.171,33.171,0,0,1,894.235,711.833Z" transform="translate(-22.922 -0.015)" fill="#1babcc"/>
    <path id="Path_302" data-name="Path 302" d="M835.015,711.837c2.293,2.78,4.447,5.514,5.594,8.858a5.818,5.818,0,0,1-3.846,7.557,5.893,5.893,0,0,1-7.462-4.057,5.989,5.989,0,0,1,.343-4.177A32.9,32.9,0,0,1,835.015,711.837Z" transform="translate(-3.486 -0.017)" fill="#1babcc"/>
  </g>
</svg>
