<svg xmlns="http://www.w3.org/2000/svg" width="119.46" height="72.515" viewBox="0 0 119.46 72.515">
  <g id="Group_320" data-name="Group 320" transform="translate(-224.526 -3288.539)">
    <g id="Group_291" data-name="Group 291" transform="translate(-1510.527 2731.769)">
      <path id="Path_291" data-name="Path 291" d="M1864.735,603.409a7.335,7.335,0,0,1-6.885-10.086c1.479-3.553,3.2-7,4.842-10.488a2.253,2.253,0,0,1,4.068-.006c1.64,3.483,3.372,6.931,4.852,10.482A7.344,7.344,0,0,1,1864.735,603.409Z" transform="translate(-63.777 -6.253)" fill="#29b0cf"/>
    </g>
    <g id="Group_319" data-name="Group 319" transform="translate(-383.853 3044.413)">
      <path id="Path_407" data-name="Path 407" d="M670.8,303.662c3.621,0,7.1.015,10.573-.034.239,0,.584-.447.691-.753a10.516,10.516,0,0,1,14.585-6.148,10.081,10.081,0,0,1,5.35,6.115c.191.578.425.841,1.095.839q14.229-.037,28.458-.017c.2,0,.394-.025.7-.045V249.187h-61.4c-.027.559-.027,1.087-.081,1.611a2.454,2.454,0,0,1-2.367,2.261,2.342,2.342,0,0,1-2.5-2.08,34.344,34.344,0,0,1-.011-4.763,2.3,2.3,0,0,1,2.2-2.069c.263-.025.53-.019.8-.019h65.374c2.181,0,3.055.878,3.057,3.094q.008,7.662,0,15.324v1.3h1.164c3.582,0,7.165.023,10.747-.012a3.035,3.035,0,0,1,2.805,1.511c4.159,6.352,8.372,12.669,12.516,19.031a4.339,4.339,0,0,1,.671,2.213c.052,6.368.032,12.736.03,19.1,0,2.063-.906,3.061-2.977,2.922-2.087-.14-3.318.227-4.368,2.486-1.887,4.057-5.58,5.881-10.071,5.472a9.966,9.966,0,0,1-8.9-6.908,1.3,1.3,0,0,0-1.463-1.039q-17.114.044-34.228.006a1.1,1.1,0,0,0-1.264.885,10.467,10.467,0,0,1-19.82.049,1.151,1.151,0,0,0-1.323-.939c-4.079.039-8.159.021-12.239.016a2.474,2.474,0,0,1-2.778-2.666q-.032-6.816.007-13.632a2.463,2.463,0,0,1,2.051-2.56,2.418,2.418,0,0,1,2.678,1.436,4.852,4.852,0,0,1,.243,1.654c.021,3.217.009,6.434.008,9.652Zm89.389-.1a5.951,5.951,0,0,0,.069-.651c0-5.139.014-10.278-.012-15.417a2.312,2.312,0,0,0-.394-1.179q-5.532-8.441-11.126-16.841a1.676,1.676,0,0,0-1.184-.605c-1.987-.062-3.978-.029-5.967-.03h-4.183V303.6c1.124.1,1.124.1,1.469-.859a10.482,10.482,0,0,1,19.834.058C758.973,303.624,759.368,303.838,760.185,303.561Zm-16.893,2.5a5.5,5.5,0,1,0,5.59-5.395A5.467,5.467,0,0,0,743.291,306.056Zm-51.251-5.394a5.5,5.5,0,1,0,5.517,5.477A5.471,5.471,0,0,0,692.041,300.662Z" transform="translate(-37.405 0)" fill="#1babcc"/>
      <path id="Path_409" data-name="Path 409" d="M629.475,354.432c-6.1,0-12.2.009-18.3,0-2.143,0-3.406-1.835-2.508-3.6a2.517,2.517,0,0,1,2.454-1.381q3.629,0,7.258,0,14.76.009,29.519.024a2.5,2.5,0,0,1,2.795,2.443,2.529,2.529,0,0,1-2.828,2.516Q638.672,354.441,629.475,354.432Z" transform="translate(0 -68.611)" fill="#1babcc"/>
      <path id="Path_410" data-name="Path 410" d="M651.987,314.215q6.561,0,13.122,0a8.4,8.4,0,0,1,1.19.059,2.467,2.467,0,0,1,.253,4.821,4.555,4.555,0,0,1-1.082.112q-13.52.005-27.039,0c-1.637,0-2.677-.8-2.865-2.164a2.493,2.493,0,0,1,2.7-2.816c3.115-.024,6.23-.007,9.344-.007Z" transform="translate(-17.693 -45.656)" fill="#1babcc"/>
      <path id="Path_411" data-name="Path 411" d="M671.328,279.008q4.671,0,9.343,0c1.833,0,2.941.927,2.969,2.461.028,1.514-1.123,2.514-2.922,2.516q-9.442.008-18.885,0c-1.742,0-2.851-.965-2.878-2.473-.026-1.489,1.1-2.5,2.831-2.507C664.966,279,668.147,279.007,671.328,279.008Z" transform="translate(-32.948 -22.722)" fill="#1babcc"/>
    </g>
  </g>
</svg>
