<svg xmlns="http://www.w3.org/2000/svg" width="82.531" height="82.562" viewBox="0 0 82.531 82.562">
  <g id="Group_317" data-name="Group 317" transform="translate(-88.728 -476.16)">
    <path id="Path_402" data-name="Path 402" d="M165.9,532.82a3.776,3.776,0,0,0-.448,0q-1.243.183-2.487.361a35.218,35.218,0,1,1-39.595-38.561c.05-.358.1-.716.152-1.074.125-.895.21-1.795.32-2.747a38.743,38.743,0,0,0-26.071,13.7l-.041.048c-.051.061-.1.123-.15.184a39.039,39.039,0,0,0-8.849,24.615q0,1.875.189,3.787a38.592,38.592,0,0,0,44.462,34.411,37.452,37.452,0,0,0,25.564-15.931A38.7,38.7,0,0,0,165.9,532.82Z" transform="translate(0 -9.29)" fill="#1babcc"/>
    <path id="Path_403" data-name="Path 403" d="M172.173,546.876a2.938,2.938,0,0,0-.349,0l-1.937.281a27.436,27.436,0,1,1-30.846-30.04c.039-.279.08-.558.118-.837.1-.7.164-1.4.249-2.14a30.183,30.183,0,0,0-20.31,10.672l-.032.038c-.039.047-.078.1-.117.143a30.414,30.414,0,0,0-6.894,19.176c0,.974.049,1.958.147,2.951a30.064,30.064,0,0,0,34.638,26.807,29.179,29.179,0,0,0,19.916-12.411A30.15,30.15,0,0,0,172.173,546.876Z" transform="translate(-14.802 -24.101)" fill="#1babcc"/>
    <path id="Path_404" data-name="Path 404" d="M238.434,513.2a5.138,5.138,0,0,1-.443,1.07,16.869,16.869,0,0,1-3.727,3.819,2.2,2.2,0,0,1-.943.369q-4.957.784-9.923,1.52a2.977,2.977,0,0,1-1.265-.092q-2.336-.717-4.641-1.536a1.653,1.653,0,0,1-.806-.657c-.86-1.447-1.665-2.926-2.5-4.387a34.9,34.9,0,0,0-14.879-14.053c-.825-.419-1.63-.884-2.415-1.375a1.529,1.529,0,0,1-.609-.719c-.571-1.637-1.117-3.283-1.619-4.943a2.888,2.888,0,0,1-.009-1.219c.5-3.312.995-6.625,1.55-9.928a2.771,2.771,0,0,1,.727-1.371c1.027-1.059,2.134-2.039,3.2-3.061a1.646,1.646,0,0,1,1.521-.441c2.593.5,5.211.921,7.758,1.6a12.048,12.048,0,0,1,3.334,1.794,79.861,79.861,0,0,1,12.321,10.447,79.634,79.634,0,0,1,9.843,11.693c.63.941,1.223,1.912,1.763,2.907a4.833,4.833,0,0,1,.377,1.379c.424,2.175.833,4.353,1.243,6.53.038.2.05.409.074.613Zm-5.253-3.544a3.087,3.087,0,0,0-.625-1.862c-1.559-2.427-3.037-4.914-4.725-7.249a61.516,61.516,0,0,0-18.156-16.926,37.432,37.432,0,0,0-3.907-2.074,2.366,2.366,0,0,0-3.159,1.115,2.555,2.555,0,0,0,.85,3.325,13.466,13.466,0,0,0,1.226.759,57.543,57.543,0,0,1,20.674,19.263c1.123,1.707,2.153,3.475,3.267,5.189a2.366,2.366,0,0,0,2.754.989A2.483,2.483,0,0,0,233.181,509.655Z" transform="translate(-67.175 0)" fill="#1babcc"/>
    <path id="Path_405" data-name="Path 405" d="M181.185,565a18.018,18.018,0,1,1-36.024-.712c.276-7.856,6.833-17.418,18.138-17.379A18.015,18.015,0,0,1,181.185,565Zm-17.979,7.676a7.744,7.744,0,1,0-7.755-7.767A7.708,7.708,0,0,0,163.207,572.674Zm10.207,2.569a2.352,2.352,0,0,0-2.618-2.5,2.526,2.526,0,0,0-2.449,2.579,2.582,2.582,0,0,0,2.5,2.5A2.384,2.384,0,0,0,173.414,575.243ZM157.934,554.6a2.355,2.355,0,0,0-2.556-2.524,2.524,2.524,0,0,0-2.509,2.535,2.573,2.573,0,0,0,2.518,2.544A2.392,2.392,0,0,0,157.934,554.6Zm15.48.045a2.372,2.372,0,0,0-2.607-2.575,2.533,2.533,0,0,0-2.462,2.574,2.651,2.651,0,0,0,2.55,2.535A2.483,2.483,0,0,0,173.414,554.644ZM152.778,564.9a2.351,2.351,0,0,0-2.632-2.49A2.514,2.514,0,0,0,147.71,565a2.567,2.567,0,0,0,2.506,2.486A2.393,2.393,0,0,0,152.778,564.9Zm23.21-2.49a2.533,2.533,0,0,0-2.489,2.544,2.616,2.616,0,0,0,2.478,2.529,2.4,2.4,0,0,0,2.607-2.541A2.361,2.361,0,0,0,175.988,562.411Zm-18.054,12.827a2.354,2.354,0,0,0-2.629-2.5,2.514,2.514,0,1,0,.157,5.025A2.283,2.283,0,0,0,157.933,575.238Z" transform="translate(-35.802 -44.89)" fill="#1babcc"/>
  </g>
</svg>
