<svg xmlns="http://www.w3.org/2000/svg" width="97" height="73.569" viewBox="0 0 97 73.569">
  <g id="Group_314" data-name="Group 314" transform="translate(-231 -3067.431)">
    <path id="Polygon_5" data-name="Polygon 5" d="M13.549,5.887a4,4,0,0,1,6.9,0l10.019,17.09A4,4,0,0,1,27.019,29H6.981a4,4,0,0,1-3.451-6.023Z" transform="translate(294 3112)" fill="#29b0cf"/>
    <path id="Polygon_6" data-name="Polygon 6" d="M13.549,5.887a4,4,0,0,1,6.9,0l10.019,17.09A4,4,0,0,1,27.019,29H6.981a4,4,0,0,1-3.451-6.023Z" transform="translate(231 3112)" fill="#29b0cf"/>
    <g id="Group_318" data-name="Group 318" transform="translate(105.833 2305.522)">
      <path id="Path_406" data-name="Path 406" d="M134.167,802.493v-3.12c.2-1.46.351-2.929.619-4.376a40.008,40.008,0,0,1,79.345,4.784c.029.467.028.935.035,1.4.035,2.268-.865,3.188-3.12,3.189q-36.793,0-73.586.022A3.133,3.133,0,0,1,134.167,802.493Zm37.483-35.422a35.078,35.078,0,0,0-20.376,8.48c.575.528,1.111.98,1.6,1.478a2.531,2.531,0,1,1-3.564,3.564c-.506-.508-.935-1.094-1.428-1.678a34.968,34.968,0,0,0-8.538,20.376h21.119c.283-.89.493-1.753.827-2.565a13.748,13.748,0,0,1,15.523-8.433.946.946,0,0,0,1.232-.627c1.8-3.714,3.641-7.41,5.472-11.11a5.366,5.366,0,0,1,.5-.876,2.521,2.521,0,0,1,4.389.715,2.747,2.747,0,0,1-.277,2.248q-2.8,5.652-5.59,11.313c-.1.2-.176.414-.261.616.115.107.186.183.267.246a13.575,13.575,0,0,1,5.13,7.952c.132.59.458.571.893.571q9.842-.008,19.684-.005c.229,0,.459-.023.751-.038a34.836,34.836,0,0,0-8.465-20.273c-.562.588-1.033,1.11-1.535,1.6a2.54,2.54,0,0,1-3.691.171,2.512,2.512,0,0,1,.124-3.739c.5-.517,1.048-1,1.61-1.528a35.035,35.035,0,0,0-20.358-8.45c0,.976.016,1.88,0,2.784a2.519,2.519,0,1,1-5.034-.032C171.637,768.95,171.65,768.069,171.65,767.071Zm4.383,24.555c-5.186-1.3-11.077,2.684-11.929,7.663,1.463.138,1.463.138,2.043-1.157a8.846,8.846,0,0,1,8.194-5.1c.768.039,1.241-.074,1.448-.844A4.038,4.038,0,0,1,176.033,791.626Zm8.305,7.675a10.291,10.291,0,0,0-3.624-5.6,5,5,0,0,1-.3.537c-.458.62-.332,1.049.209,1.638a10.009,10.009,0,0,1,1.666,2.586c.306.668.623,1,1.354.874A6.664,6.664,0,0,1,184.338,799.3Z" fill="#29b0cf"/>
      <rect id="Rectangle_224" data-name="Rectangle 224" width="43.432" height="5.203" rx="2.601" transform="translate(152.451 807.478)" fill="#29b0cf"/>
      <rect id="Rectangle_225" data-name="Rectangle 225" width="23.682" height="5.203" rx="2.601" transform="translate(162.326 815.775)" fill="#29b0cf"/>
    </g>
  </g>
</svg>
