<svg width="156" height="32" viewBox="0 0 520 106" fill="none" xmlns="http://www.w3.org/2000/svg"><g clip-path="url(#clip0)"><path fill-rule="evenodd" clip-rule="evenodd" d="M.52.919h250.198l-29.169 104.673H.519V.919z" fill="#ED1C24"/><path fill-rule="evenodd" clip-rule="evenodd" d="M519.363.919l-29.528 104.673H221.549L250.718.919h268.645z" fill="#2E3092"/><path d="M288.244 50.62c.563-3.433.794-6.36.666-8.802-.125-2.43-.516-4.443-1.175-6.031-.655-1.607-1.512-2.862-2.555-3.755a9.226 9.226 0 00-3.429-1.933 13.12 13.12 0 00-3.913-.549c-2.569-.022-5.047.535-7.437 1.596-2.397 1.065-4.666 2.73-6.774 4.96-2.137 2.243-4.095 5.127-5.871 8.666-1.8 3.52-3.337 7.744-4.688 12.67-1.35 4.934-2.137 9.216-2.32 12.792-.191 3.601.142 6.562.995 8.857.827 2.32 2.141 4.051 3.898 5.138 1.731 1.113 3.869 1.662 6.383 1.662a19.2 19.2 0 006.332-.966c2.075-.674 4.055-1.849 6.005-3.543 1.926-1.673 3.781-4.044 5.578-7.06 1.79-3.012 3.481-6.848 5.102-11.485h-8.93c-.743 2.207-1.658 4.117-2.716 5.71-1.087 1.603-2.258 2.843-3.51 3.714-1.259.875-2.532 1.3-3.832 1.318-1.797 0-3.147-.64-4.062-1.896-.937-1.252-1.391-3.093-1.402-5.493-.011-2.394.439-5.315 1.369-8.748.93-3.433 2.053-6.324 3.345-8.688 1.296-2.368 2.73-4.176 4.319-5.402 1.57-1.226 3.243-1.852 5.021-1.852 1.175-.015 2.16.252 2.954.82.79.578 1.325 1.53 1.669 2.858.322 1.34.336 3.151.088 5.442h8.89zm1.108 6.822c-1.288 4.934-1.976 9.216-2.093 12.792-.121 3.601.296 6.562 1.248 8.857.948 2.32 2.328 4.051 4.191 5.138 1.859 1.113 4.117 1.662 6.745 1.662a17.88 17.88 0 007.572-1.662c2.419-1.087 4.703-2.818 6.811-5.138 2.127-2.295 4.048-5.256 5.768-8.857 1.731-3.576 3.203-7.858 4.454-12.792 1.208-4.919 1.852-9.142 1.896-12.663.073-3.546-.377-6.423-1.339-8.674-.945-2.229-2.343-3.894-4.184-4.96-1.811-1.06-4.025-1.617-6.606-1.595-2.573-.022-5.065.535-7.444 1.596-2.379 1.065-4.608 2.73-6.709 4.96-2.111 2.243-4.033 5.127-5.764 8.673-1.727 3.52-3.261 7.737-4.546 12.663zm8.912 0c.886-3.433 1.973-6.324 3.232-8.688 1.266-2.368 2.701-4.176 4.253-5.402s3.243-1.852 5.018-1.852c1.778 0 3.125.626 4.051 1.852.952 1.226 1.427 3.034 1.497 5.402.066 2.364-.333 5.255-1.2 8.688-.864 3.433-1.929 6.35-3.207 8.748-1.27 2.397-2.682 4.241-4.271 5.493-1.566 1.255-3.253 1.896-5.054 1.896-1.793 0-3.177-.64-4.106-1.896-.93-1.252-1.431-3.093-1.472-5.493-.044-2.394.374-5.315 1.259-8.748zm65.128 26.45h8.7c1.383-6.013 2.763-11.993 4.132-17.955 1.369-5.936 2.73-11.862 4.085-17.754.786-3.404 1.152-6.266 1.101-8.586-.025-2.317-.384-4.176-1.054-5.556-.64-1.39-1.508-2.386-2.595-3.012a7.166 7.166 0 00-3.623-.9c-2.379.014-4.663.863-6.851 2.55-2.193 1.68-4.264 4.07-6.193 7.177.044-1.983-.157-3.685-.593-5.149-.421-1.435-1.138-2.566-2.115-3.36-.992-.805-2.31-1.204-3.964-1.219-1.259.015-2.489.275-3.726.765a16.706 16.706 0 00-3.565 2.039c-1.127.842-2.141 1.797-3.092 2.836a23.136 23.136 0 00-2.401 3.214h-.088c.611-2.507 1.222-5.01 1.834-7.507h-8.272c-2.13 8.605-4.274 17.271-6.426 25.975-2.167 8.754-4.352 17.582-6.544 26.45h8.721c1.175-4.81 2.346-9.604 3.514-14.373 1.16-4.765 2.32-9.497 3.477-14.233.501-2.042 1.12-3.836 1.8-5.343.732-1.501 1.49-2.764 2.339-3.755.853-1.003 1.727-1.732 2.639-2.237.904-.483 1.819-.72 2.741-.72a3.654 3.654 0 011.724.402c.538.289.966.765 1.321 1.442.337.662.52 1.581.556 2.734.037 1.167-.175 2.602-.571 4.355-1.259 5.241-2.525 10.511-3.795 15.785L342.78 83.9h8.696l3.411-14.373 3.378-14.233c.483-2.042 1.087-3.836 1.786-5.343.692-1.501 1.468-2.764 2.287-3.755.824-1.003 1.691-1.732 2.599-2.237.878-.483 1.768-.72 2.668-.72a3.959 3.959 0 011.797.402c.542.296.992.765 1.354 1.442.341.662.553 1.581.575 2.734.044 1.167-.132 2.61-.542 4.355-1.222 5.241-2.452 10.511-3.678 15.778-1.233 5.3-2.474 10.614-3.719 15.943zm28.947-26.153c.563-2.496 1.281-4.681 2.133-6.562.853-1.882 1.797-3.463 2.822-4.718 1.029-1.263 2.09-2.2 3.203-2.847 1.109-.626 2.192-.952 3.272-.952 1.101 0 2.067.326 2.895.952.827.647 1.474 1.58 1.939 2.847.491 1.255.729 2.836.743 4.718.015 1.88-.26 4.066-.787 6.562-.571 2.496-1.259 4.707-2.104 6.591-.846 1.896-1.786 3.488-2.844 4.788-1.032 1.277-2.108 2.236-3.228 2.89-1.123.649-2.24.974-3.356.974-1.091 0-2.042-.325-2.873-.973-.831-.655-1.482-1.614-1.943-2.891-.462-1.3-.692-2.892-.696-4.788-.007-1.884.264-4.095.824-6.591zm-18.864 46.107h8.781c.977-4.337 1.958-8.685 2.928-13.003.969-4.312 1.939-8.616 2.906-12.912h.091c.209 1.606.648 2.997 1.365 4.18a7.495 7.495 0 002.822 2.784c1.182.648 2.591.981 4.209.996 2.108-.015 4.223-.707 6.299-2.042 2.078-1.362 4.073-3.287 5.943-5.805 1.885-2.489 3.587-5.493 5.069-8.978 1.497-3.455 2.723-7.342 3.649-11.624.992-4.586 1.453-8.593 1.428-12.004-.044-3.426-.487-6.255-1.362-8.524-.9-2.258-2.123-3.96-3.689-5.084-1.589-1.141-3.437-1.701-5.567-1.701-1.178-.03-2.35.194-3.521.625-1.175.447-2.415 1.285-3.722 2.504-1.299 1.197-2.745 2.95-4.341 5.24h-.091c.527-2.342 1.054-4.684 1.581-7.015h-8.271a239738.5 239738.5 0 01-8.151 35.724c-2.76 12.114-5.548 24.328-8.356 36.639zm43.041-19.953h8.7c.808-3.821 1.621-7.657 2.426-11.452.802-3.8 1.607-7.587 2.405-11.372.724-3.41 1.665-6.306 2.792-8.696 1.124-2.382 2.474-4.209 4.019-5.478 1.533-1.256 3.279-1.885 5.244-1.907.791 0 1.563.16 2.27.45.732.278 1.442.655 2.137 1.101 1.105-5.328 2.203-10.635 3.301-15.935a5.553 5.553 0 00-1.489-.384 13.807 13.807 0 00-1.527-.091c-1.211 0-2.331.223-3.367.677-1.061.46-2.082 1.152-3.059 2.082-.985.94-1.995 2.13-3.042 3.572-1.05 1.45-2.152 3.159-3.356 5.139h-.091l2.144-10.116h-8.249c-1.848 8.604-3.711 17.27-5.578 25.967-1.881 8.761-3.777 17.578-5.68 26.443zm52.417-21.447c-.347 1.767-.845 3.356-1.486 4.746a16.84 16.84 0 01-2.181 3.686 14.273 14.273 0 01-2.635 2.61 10.914 10.914 0 01-2.815 1.555c-.955.34-1.855.512-2.741.512-1.094 0-1.991-.307-2.694-.878-.702-.571-1.171-1.406-1.401-2.496-.231-1.102-.209-2.452.113-4.037.319-1.56.765-2.81 1.288-3.766.52-.948 1.179-1.673 1.955-2.163.776-.476 1.68-.798 2.73-.944 1.709-.29 3.448-.59 5.183-.886a16.417 16.417 0 002.712-.655c.922-.311 1.862-.831 2.829-1.596l-.857 4.312zm-10.818-15.134c.655-1.768 1.302-3.195 1.917-4.227.615-1.05 1.245-1.823 1.889-2.343a5.095 5.095 0 012.068-.98c.724-.143 1.544-.21 2.463-.195 1.643 0 2.924.231 3.824.685.875.439 1.457 1.138 1.702 2.057.271.9.246 2.068-.029 3.451-.274 1.383-.604 2.427-.97 3.18-.359.74-.838 1.278-1.427 1.622-.56.326-1.299.527-2.203.644-3.133.432-6.266.849-9.399 1.263a17.88 17.88 0 00-3.283.713c-1.116.359-2.218.9-3.287 1.6-1.068.691-2.082 1.658-3.048 2.847-.948 1.19-1.819 2.675-2.603 4.487-.775 1.8-1.453 3.986-1.98 6.518-.633 3.086-.882 5.717-.765 7.91.121 2.184.549 3.967 1.314 5.343.769 1.372 1.794 2.394 3.1 3.038 1.307.648 2.822.959 4.557.959 1.003 0 2.079-.11 3.246-.356 1.19-.237 2.394-.647 3.653-1.233 1.233-.582 2.463-1.361 3.689-2.357 1.2-.995 2.309-2.221 3.356-3.707a44.568 44.568 0 00-.355 2.829c-.084.944-.124 1.888-.172 2.833h8.744c-.084-1.322-.015-2.862.146-4.616.183-1.753.487-3.799.919-6.1.852-4.378 1.702-8.733 2.551-13.089.845-4.333 1.691-8.651 2.532-12.963a37.45 37.45 0 00.725-5.56c.073-1.752-.04-3.363-.403-4.827-.344-1.456-.991-2.73-1.884-3.784-.934-1.069-2.178-1.914-3.788-2.503-1.607-.593-3.631-.9-6.072-.9a23.94 23.94 0 00-4.231.325c-1.457.223-2.848.677-4.235 1.332-1.39.677-2.712 1.644-4.015 2.957-1.273 1.3-2.477 3.016-3.594 5.165-1.09 2.133-2.086 4.801-2.946 7.982h8.294zm-351.48-20.964c4.893 0 9.79.015 14.698 0 .717 0 1.384.106 2.024.38.63.271 1.146.743 1.548 1.395.406.662.6 1.57.615 2.726.018 1.15-.234 2.614-.776 4.37-.509 1.67-1.131 3.086-1.808 4.25-.681 1.163-1.413 2.097-2.17 2.81-.758.718-1.512 1.234-2.255 1.552-.746.322-1.438.472-2.1.472h-15.313c1.848-5.984 3.692-11.978 5.537-17.955zm-13.977 7.927H.52v8.645h89.462L88.5 47.718.52 47.674v8.689h85.305l-1.483 4.801H.52v8.645h81.15l-1.782 5.761H.548l-.01 8.637 76.675.004h11.584l8.64-26.297c4.608 0 9.22.011 13.839 0 .907-.003 1.672.173 2.313.56.622.374 1.079 1.014 1.343 1.948.26.918.293 2.203.088 3.843-.201 1.62-.674 3.692-1.439 6.188-.57 1.87-1.057 3.474-1.46 4.85a70.192 70.192 0 00-.955 3.605 26.948 26.948 0 00-.523 2.81c-.103.853-.165 1.68-.143 2.493h12.674c-.212-.93-.267-2.09-.143-3.462a37.71 37.71 0 01.67-4.36 74.828 74.828 0 011.047-4.355c.366-1.354.688-2.48.97-3.389a93.138 93.138 0 001.284-4.567c.418-1.625.732-3.225.989-4.82.263-1.61.384-3.111.373-4.476-.015-1.365-.234-2.515-.644-3.448-.407-.933-1.065-1.537-1.991-1.823a3.03 3.03 0 00.062-.2c2.84-1.458 5.252-3.588 7.236-6.431 1.972-2.837 3.605-6.43 4.926-10.75.45-1.478.849-3.07 1.167-4.798.322-1.735.454-3.44.421-5.157-.036-1.705-.337-3.246-.937-4.677-.585-1.398-1.581-2.525-2.946-3.374-1.354-.846-3.191-1.31-5.534-1.314-10.288-.015-20.565 0-30.83 0l-6.636 21.465zm67.975 33.869c-1.453 2.31-3.092 4.07-4.922 5.248-1.827 1.172-3.807 1.79-5.926 1.775-1.789-.014-3.191-.464-4.238-1.306-1.039-.835-1.782-1.922-2.21-3.24-.44-1.339-.623-2.73-.568-4.215.055-1.49.282-2.88.677-4.187.022-.066.041-.132.063-.202h30.794c.161-.527.322-1.057.483-1.595 2.042-6.76 3.02-12.506 2.961-17.26-.062-4.74-1.233-8.352-3.51-10.845-2.284-2.492-5.709-3.759-10.306-3.773a25.2 25.2 0 00-9.124 1.654c-2.906 1.102-5.659 2.822-8.213 5.135-2.573 2.328-4.908 5.31-7.024 8.956-2.111 3.63-3.956 7.975-5.497 13.029-1.537 5.032-2.349 9.402-2.459 13.051-.11 3.656.421 6.654 1.57 8.985 1.153 2.346 2.851 4.081 5.091 5.194 2.254 1.12 4.966 1.665 8.154 1.672a24.02 24.02 0 009.337-1.859c3.001-1.244 5.863-3.188 8.567-5.86 2.72-2.678 5.227-6.123 7.529-10.357h-11.229zm-13.955-16.528c.018-.066.044-.132.059-.201.076-.282.336-.864.772-1.732.446-.893 1.043-1.895 1.804-3.03.765-1.135 1.713-2.243 2.793-3.32a14.75 14.75 0 013.704-2.7 9.749 9.749 0 014.549-1.12c1.519 0 2.763.322 3.7.947a5.838 5.838 0 012.086 2.401 9.65 9.65 0 01.882 3.097c.121 1.105.136 2.137.044 3.107-.088.962-.234 1.746-.428 2.35-.022.065-.04.135-.062.2h-19.903zm43.692 5.998c.769-2.55 1.717-4.805 2.822-6.737 1.105-1.933 2.313-3.55 3.612-4.85 1.299-1.303 2.639-2.273 4.03-2.935 1.39-.659 2.748-.98 4.081-.98 1.317 0 2.481.321 3.462.98.981.662 1.724 1.636 2.247 2.935.527 1.303.758 2.917.706 4.85-.051 1.932-.457 4.186-1.218 6.737-.765 2.562-1.71 4.806-2.808 6.735-1.109 1.936-2.305 3.564-3.619 4.878-1.307 1.307-2.635 2.28-4.011 2.94-1.38.662-2.742.995-4.063.995-1.34 0-2.5-.33-3.499-.996-.992-.655-1.76-1.628-2.276-2.939-.516-1.31-.747-2.939-.692-4.878.055-1.93.457-4.173 1.226-6.735zm11.792 26.597h10.189l10.848-36.394c3.598-12.089 7.196-24.155 10.786-36.208h-10.478c-1.266 4.253-2.54 8.506-3.806 12.748l-3.814 12.758h-.121c-.194-1.61-.699-3.008-1.515-4.201-.813-1.182-1.911-2.12-3.316-2.774-1.402-.656-3.082-1-5.054-1-2.533 0-5.08.7-7.635 2.043-2.558 1.35-5.021 3.297-7.386 5.808-2.382 2.525-4.541 5.56-6.5 9.073-1.969 3.528-3.637 7.48-4.948 11.85-1.409 4.689-2.17 8.792-2.327 12.334-.154 3.532.226 6.478 1.141 8.854.912 2.364 2.27 4.143 4.074 5.325 1.808 1.19 3.96 1.782 6.46 1.793a16.569 16.569 0 004.878-.717c1.651-.498 3.356-1.402 5.088-2.68 1.731-1.276 3.506-3.051 5.328-5.35h.121c-.673 2.255-1.343 4.502-2.013 6.738z" fill="#fff"/></g><defs><clipPath id="clip0"><path fill="#fff" d="M0 0h520v105.874H0z"/></clipPath></defs></svg>