<svg xmlns="http://www.w3.org/2000/svg" width="114.878" height="72.489" viewBox="0 0 114.878 72.489">
  <g id="Group_316" data-name="Group 316" transform="translate(-1131.601 -3067.326)">
    <g id="Group_287" data-name="Group 287" transform="translate(-24.034 2329.346)">
      <path id="Path_308" data-name="Path 308" d="M1192.417,781.5a10.868,10.868,0,0,0-4.466-8.606,2.56,2.56,0,0,1-.8-1.085c-1.842-5.171-3.647-10.355-5.467-15.534a11.384,11.384,0,0,0-11.337-8.016q-7.358,0-14.714,0v5.663q7.3,0,14.592,0c3.252,0,5.085,1.3,6.159,4.369q1.436,4.1,2.87,8.2c.751,2.155-.295,3.459-2.555,3.1a134.9,134.9,0,0,0-21.066-1.495v11.3h.078c2.71,0,5.42,0,8.13,0a2.836,2.836,0,1,1,0,5.648q-4.1,0-8.2,0v14.127q12.73,0,25.5-.741c0,1.054,0,2.012,0,2.971,0,3.515,1.479,5.391,4.909,6.251.047.011.084.066.125.1h1.162a3.4,3.4,0,0,1,.459-.154,5.548,5.548,0,0,0,4.648-5.386C1192.485,795.313,1192.525,788.4,1192.417,781.5Zm-12.706,6.379a4.236,4.236,0,1,1-.013-8.472,4.236,4.236,0,1,1,.013,8.472Z" fill="#1babcc"/>
    </g>
    <g id="Group_292" data-name="Group 292" transform="translate(700.078 2337.722)">
      <path id="Path_292" data-name="Path 292" d="M510.178,802.093A36.244,36.244,0,1,1,546.4,765.946,36.258,36.258,0,0,1,510.178,802.093Zm.017-64.727a28.469,28.469,0,1,0,28.417,27.914A28.486,28.486,0,0,0,510.2,737.366Z" transform="translate(0)" fill="#29b0cf"/>
      <path id="Path_293" data-name="Path 293" d="M517.5,748.048a25.192,25.192,0,1,1-25.148,25.421A25.164,25.164,0,0,1,517.5,748.048Zm18.391,33a19.487,19.487,0,0,0-.021-15.6q-1.1.727-2.19,1.45-3.313,2.186-6.628,4.365a.482.482,0,0,0-.259.556,8.768,8.768,0,0,1-.056,3.19Zm-20.815-27.617a19.975,19.975,0,0,0-13.449,7.874c.625.308,1.181.581,1.736.856l7.794,3.861a.4.4,0,0,0,.469.019c.838-.508,1.7-.988,2.562-1.445a.418.418,0,0,0,.278-.414c.079-1.565.173-3.129.263-4.694C514.846,757.491,514.961,755.5,515.079,753.428Zm-13.447,31.748a19.933,19.933,0,0,0,13.409,7.862.61.61,0,0,0,.031-.128q-.3-5.341-.62-10.681a.516.516,0,0,0-.256-.326c-.8-.449-1.62-.853-2.4-1.333a.679.679,0,0,0-.782-.06c-2.374,1.194-4.759,2.369-7.139,3.549Zm-2.543-4.291,9.2-5.929c0-1.049-.025-2.043.016-3.034a.53.53,0,0,0-.267-.576c-2.343-1.5-4.676-3.01-7.014-4.515-.631-.406-1.267-.8-1.945-1.234A20.122,20.122,0,0,0,499.089,780.885Zm21.05-27.449c0,.192-.007.339,0,.484q.286,5.157.586,10.313a.571.571,0,0,0,.285.351c.756.439,1.533.839,2.279,1.294a.491.491,0,0,0,.569.052c2.466-1.252,4.937-2.49,7.406-3.735.693-.349,1.382-.708,2.107-1.079A20.049,20.049,0,0,0,520.139,753.436Zm13.24,31.919-.7-.353q-4.426-2.231-8.856-4.453a.582.582,0,0,0-.464.019c-.806.432-1.6.883-2.391,1.343a.486.486,0,0,0-.235.307c-.073,1.023-.121,2.049-.181,3.073-.1,1.631-.2,3.261-.291,4.892-.053.94-.09,1.881-.135,2.862A20.1,20.1,0,0,0,533.378,785.355ZM521.96,773.223a4.413,4.413,0,1,0-4.455,4.425A4.389,4.389,0,0,0,521.96,773.223Z" transform="translate(-7.388 -7.393)" fill="#29b0cf"/>
    </g>
  </g>
</svg>
