<svg xmlns="http://www.w3.org/2000/svg" width="84.515" height="84.463" viewBox="0 0 84.515 84.463">
  <g id="Group_321" data-name="Group 321" transform="translate(-1126.003 110.524)">
    <path id="Path_412" data-name="Path 412" d="M1153.863-26.062c-12.686.006-22.837-7.244-26.446-17.927a26.4,26.4,0,0,1,9.563-29.946c11.925-8.758,23.935-17.4,35.906-26.1q4.835-3.512,9.654-7.044a17.546,17.546,0,0,1,22.783,1.606,17.482,17.482,0,0,1,1.824,22.759Q1190.68-60,1174.16-37.336C1168.817-29.994,1161.553-26.326,1153.863-26.062Zm19.924-26.188a21.285,21.285,0,0,0-20.916-21.586,21.341,21.341,0,0,0-21.715,21.06A21.3,21.3,0,0,0,1152.1-31.2,21.243,21.243,0,0,0,1173.787-52.25Zm21.592-23.313c-5.918.285-10.758-1.14-14.689-5.017-3.989-3.935-5.44-8.84-5.132-14.848L1152.892-79.1c7.4.649,13.4,2.991,18.276,7.839,4.9,4.876,7.257,10.917,7.923,18.32ZM1180.709-93.05A12.369,12.369,0,0,0,1192.922-80.7a12.446,12.446,0,0,0,12.408-12.188,12.425,12.425,0,0,0-12.365-12.464A12.337,12.337,0,0,0,1180.709-93.05Z" transform="translate(0 0)" fill="#1babcc"/>
    <path id="Path_413" data-name="Path 413" d="M1163.854,7.558a15.32,15.32,0,0,1-15.146-15.811A15.345,15.345,0,0,1,1164.479-23.2a15.264,15.264,0,0,1,14.993,15.7A15.251,15.251,0,0,1,1163.854,7.558Zm.343-10.983a4.48,4.48,0,0,0,4.324-4.418,4.409,4.409,0,0,0-4.624-4.329,4.3,4.3,0,0,0-4.145,4.508A4.366,4.366,0,0,0,1164.2-3.424Z" transform="translate(-11.621 -44.698)" fill="#1babcc"/>
    <path id="Path_414" data-name="Path 414" d="M1256.817-87.076a5.981,5.981,0,0,1,6.115,5.948A5.969,5.969,0,0,1,1257.011-75a6.029,6.029,0,0,1-6.15-5.936A6.064,6.064,0,0,1,1256.817-87.076Z" transform="translate(-63.914 -12.002)" fill="#1babcc"/>
  </g>
</svg>
