<svg width="127" height="32" viewBox="0 0 534 134" fill="none" xmlns="http://www.w3.org/2000/svg"><g clip-path="url(#clip0)"><path d="M17.38 113.991a2.015 2.015 0 002.008-2.02c0-1.113-.9-2.021-2.008-2.021a2.017 2.017 0 00-2.005 2.021c0 1.115.9 2.02 2.006 2.02z" fill="#009FE3"/><path d="M172.68 129.824c1.11 0 2.008-.905 2.008-2.02a2.015 2.015 0 00-2.008-2.022 2.014 2.014 0 00-2.003 2.022c0 1.115.898 2.02 2.003 2.02z" fill="#69246F"/><path d="M77.681 117.583v-.006c-.004-2.254-.788-4.153-2.206-5.436l-.1-.087-.023-.021h-.004c-1.335-1.149-3.144-1.753-5.286-1.771a.225.225 0 00-.048-.005c-.02 0-.04.003-.058.005h-.017l-.14.002-.113-.002h-.03c-.018 0-.038-.005-.063-.005h-.02c-.012 0-.026 0-.041.005-2.14.023-3.94.624-5.27 1.771h-.007l-.121.108c-1.414 1.277-2.198 3.17-2.208 5.409v.002l-.002.01-.01 11.597a.57.57 0 00.18.413.642.642 0 00.441.173H64.6c.16 0 .322-.062.438-.173a.568.568 0 00.182-.413l.004-11.206c.013-1.642.433-2.806 1.191-3.574.735-.746 1.855-1.166 3.397-1.195 1.527.029 2.647.449 3.382 1.195.756.768 1.176 1.932 1.188 3.576l-.002 11.204c0 .152.067.305.182.413a.646.646 0 00.44.173h2.067a.635.635 0 00.439-.173.56.56 0 00.184-.413l-.01-11.576zm71.963 0v-.006c-.004-2.254-.788-4.153-2.208-5.436l-.099-.087-.022-.021h-.005c-1.335-1.149-3.144-1.753-5.287-1.771a.187.187 0 00-.046-.005c-.021 0-.039.003-.058.005h-.017l-.14.002-.113-.002h-.031c-.017 0-.038-.005-.063-.005h-.018c-.013 0-.027 0-.042.005-2.139.023-3.94.624-5.271 1.771h-.006l-.121.108c-1.414 1.277-2.198 3.17-2.209 5.409v.012l-.012 11.597c0 .152.065.305.182.413a.64.64 0 00.44.173h2.064a.644.644 0 00.439-.173.567.567 0 00.182-.413l.004-11.206c.013-1.642.433-2.806 1.191-3.574.733-.746 1.855-1.166 3.397-1.195 1.527.029 2.646.449 3.382 1.195.756.768 1.176 1.932 1.188 3.576l-.002 11.204c0 .152.067.305.182.413a.645.645 0 00.441.173h2.066a.634.634 0 00.438-.173.562.562 0 00.184-.413l-.01-11.576zm-37.977-5.345a.284.284 0 00-.038-.041c-1.174-1.082-3.054-1.755-5.23-1.757-.032-.004-.076-.004-.12-.004-1.79 0-3.557.374-5.093 1.688v-1.151h.002v-5.846a.567.567 0 00-.181-.413.652.652 0 00-.441-.173h-2.033a.662.662 0 00-.44.173.56.56 0 00-.18.413v24.062c0 .153.064.305.18.412a.644.644 0 00.44.173h2.035a.64.64 0 00.439-.173.557.557 0 00.181-.412v-1.203c1.358 1.518 3.305 2.041 5.091 2.039h.128c2.17-.004 4.05-.677 5.222-1.759 2.192-2.075 2.693-5.255 2.699-8.21-.006-2.939-.507-5.751-2.661-7.818zm-.61 7.818v.087c-.006 1.847-.203 3.652-.905 4.943-.689 1.241-1.798 2.071-3.956 2.106a.49.49 0 00-.08 0h-.035c-2.171-.023-3.294-.855-3.99-2.108-.706-1.295-.905-3.115-.905-4.974V120c0-1.849.199-3.329.905-4.621.696-1.254 1.819-2.085 3.99-2.106h.083c2.171.021 3.293.852 3.99 2.11.704 1.288.903 2.768.903 4.617v.056zm-51.443-3.332v-.012c0-1.969-.654-3.654-2.025-4.78-1.383-1.135-3.363-1.667-5.918-1.669h-.126c-2.68-.009-4.806.576-6.428 2.3l-.006-.005-.093.109a8.77 8.77 0 00-.355.422s-.002.004-.005.006l-.165.197a.554.554 0 00-.128.434.664.664 0 00.222.42l.094.08a.916.916 0 00.12.121l.362.297.964.833a.633.633 0 00.444.159.549.549 0 00.402-.197l.62-.735h-.002c.386-.418.783-.715 1.262-.926.677-.296 1.544-.434 2.797-.447h.017l.042-.002c1.782.006 2.89.366 3.528.926.633.547.954 1.377.959 2.665 0 .009 0 .032.002.061v1.214h-5.294c-2.137.006-3.923.488-5.212 1.496-1.28.981-1.995 2.496-1.995 4.259v.067c.004 1.468.556 2.91 1.559 3.913 1.355 1.335 3.16 1.821 5.889 1.821h1.412c2.498 0 4.289-.616 5.444-1.861 1.151-1.243 1.613-3.044 1.613-5.283v-5.883zm-3.416 5.977c-.005 1.552-.345 2.408-.8 2.809-1.101 1.014-2.461 1.166-4.12 1.17h-.049c-1.6.002-2.647-.275-3.243-.706-.566-.409-.856-.992-.871-1.999v-.046c.01-.996.313-1.619.885-2.058.598-.455 1.607-.752 3.114-.752h5.084v1.582zm75.399-5.951v-.014c.002-1.964-.654-3.648-2.024-4.773-1.379-1.135-3.364-1.668-5.915-1.67h-.127c-2.68-.006-4.809.577-6.427 2.3l-.007-.006-.094.111c-.121.133-.24.274-.357.421l-.002.005-.165.196a.56.56 0 00-.128.435.652.652 0 00.221.42l.093.081c.037.042.077.082.121.119l.361.299.963.834a.66.66 0 00.445.156.56.56 0 00.403-.196l.619-.735c.386-.418.783-.715 1.261-.926.677-.297 1.544-.434 2.798-.445l.014-.002h.044c1.782.002 2.891.366 3.526.923.634.548.955 1.377.962 2.664 0 .009 0 .033.002.06v1.216h-5.296c-2.135.004-3.921.487-5.212 1.492-1.278.981-1.993 2.496-1.995 4.259l.002.067c.002 1.469.553 2.908 1.556 3.909 1.356 1.334 3.163 1.819 5.889 1.819h1.412c2.499.002 4.291-.614 5.445-1.859 1.152-1.243 1.614-3.041 1.614-5.277v-5.849l-.002-.034zm-12.497 7.247v-.046c.011-.996.314-1.616.884-2.055.598-.458 1.606-.752 3.115-.752h5.085v1.581c-.004 1.55-.345 2.405-.801 2.806-1.101 1.015-2.46 1.165-4.121 1.169h-.048c-1.599.003-2.647-.273-3.242-.706-.567-.407-.859-.992-.872-1.997zm-91.297-13.666h-3.486l-.005-3.535-.002-1.711c0-.307-.267-.558-.6-.558h-2.097a.633.633 0 00-.424.164.541.541 0 00-.177.394v3.153h.002v16.57c0 1.345.388 2.559 1.24 3.476.813.888 2.13 1.443 3.65 1.443h1.015v-.014h.884a.551.551 0 00.41-.184.638.638 0 00.17-.441v-2.049a.65.65 0 00-.17-.443.551.551 0 00-.41-.184h-1.62c-.329-.013-.592-.05-.822-.131-.146-.052-.236-.109-.322-.161-.092-.065-.142-.097-.234-.192-.31-.326-.484-.844-.488-1.613v-10.681h3.486c.153 0 .303-.07.41-.185a.647.647 0 00.17-.444v-2.048a.647.647 0 00-.17-.442.551.551 0 00-.41-.184zm15.039 2.419l-.192-.214a.191.191 0 00-.048-.074l-.115-.119-.16-.167-.134-.146-.005.004c-1.186-1.249-2.663-1.774-4.236-1.776-.032 0-.07 0-.121.002-1.118 0-2.436.502-3.226 1.452l-.547.648v-1.446a.564.564 0 00-.182-.413.646.646 0 00-.439-.174h-2.032a.651.651 0 00-.441.174.564.564 0 00-.182.413v18.252c0 .155.065.306.182.414a.647.647 0 00.44.174h.35l.035.002h1.28l.034-.002h.334a.65.65 0 00.44-.174.557.557 0 00.18-.414v-.315c0-.005.003-.009.003-.013v-10.827l-.002-.042v-.877c.063-1.007.382-1.912.907-2.572.56-.702 1.382-1.159 2.492-1.161.587 0 .973.068 1.305.209.324.14.652.382 1.084.827l.099.098.44.493a.57.57 0 00.416.188.655.655 0 00.445-.171l1.525-1.387a.68.68 0 00.213-.431.585.585 0 00-.142-.435zm51.228 7.018c-.009-.006-.017-.01-.023-.017h-.005c-1.186-.829-2.69-1.118-4.31-1.255l-3.032-.255c-1.264-.106-2.046-.37-2.501-.727-.384-.295-.622-.769-.631-1.495v-.017h-.002l.002-.04c.009-.861.343-1.487.936-1.914.637-.457 1.652-.75 3.091-.75h.015c1.836.002 3.355.431 4.621 1.246l-.002.002.77.54a.533.533 0 00.43.082.624.624 0 00.384-.259l1.134-1.653a.655.655 0 00.109-.455.563.563 0 00-.092-.236.6.6 0 00-.18-.207l-.131-.094c-1.81-1.288-4.331-2.013-7.05-2.017-2.18 0-4.037.523-5.384 1.526-1.338.987-2.125 2.478-2.125 4.175v.079c0 1.499.554 2.826 1.665 3.731 1.122.917 2.7 1.405 4.688 1.567l3.119.252c1.145.105 1.857.357 2.279.71.365.297.602.769.604 1.524v.048c-.009.948-.391 1.604-1.105 2.057-.765.487-2.012.784-3.742.784h-.013c-.006 0-.016 0-.03.002h-.017c-2.284-.011-3.91-.525-5.171-1.567l-.658-.558a.548.548 0 00-.432-.125.643.643 0 00-.414.229l-1.305 1.58a.654.654 0 00-.153.453.578.578 0 00.199.408l.62.524-.002.002c.01.01.025.019.035.027l.082.067.006-.006c1.917 1.389 4.31 2.053 7.24 2.053h.052c2.418-.002 4.457-.526 5.944-1.552 1.469-1.015 2.346-2.575 2.344-4.378v-.09c.002-1.818-.702-3.19-1.86-4.001zm74.866 9.167l-2.544-3.591-5.098-7.443 3.963-4.207 2.307-2.438.139-.157c.266-.269.136-.547.021-.654a.65.65 0 00-.44-.173h-2.651c-.155 0-.36.121-.477.224-.002 0 .002 0 0 0l-8.893 9.485V105.06a.581.581 0 00-.181-.414.65.65 0 00-.443-.173h-2.033a.636.636 0 00-.438.173.555.555 0 00-.185.414v24.103c0 .154.067.307.183.416a.656.656 0 00.442.173h2.033a.667.667 0 00.441-.173.575.575 0 00.181-.416v-4.866l3.852-4.175 2.595 3.881h-.012l3.645 5.448c.086.12.219.311.526.311h2.647a.64.64 0 00.441-.173c.115-.106.192-.386-.021-.654zm-22.769-24.277h.359l.533 1.57.534-1.57h.356v1.859h-.238v-1.289c0-.088.006-.178.006-.28l-.533 1.569h-.251l-.532-1.569v.261c.004.1.004.167.004.207v1.101h-.238v-1.859zm2.857-.001h.848c.141 0 .257.021.343.063.174.075.257.221.257.436a.489.489 0 01-.064.274.56.56 0 01-.199.173.397.397 0 01.169.115c.034.048.054.13.054.236l.015.247a.9.9 0 00.014.16c.019.057.044.095.084.109v.046h-.309c-.008-.018-.011-.037-.021-.06a1.01 1.01 0 01-.01-.149l-.015-.311c-.011-.123-.05-.204-.134-.244a.527.527 0 00-.221-.034h-.56v.798h-.251v-1.859zm.821.85a.45.45 0 00.274-.071c.062-.042.1-.127.1-.257 0-.129-.046-.221-.142-.27a.464.464 0 00-.2-.037h-.602v.635h.57zm-1.349 1.001c-.07 0-.121-.054-.121-.136 0-.081.051-.137.128-.137.075 0 .127.056.127.137 0 .082-.052.136-.134.136zm2.547 0c-.075 0-.13-.054-.13-.136 0-.081.055-.137.132-.137.079 0 .127.056.127.137 0 .082-.048.136-.129.136z" fill="#D6006D"/><path d="M212.24 27.995c-.036-.042-.071-.088-.119-.13-3.819-3.521-9.923-5.702-16.999-5.708-.094-.013-.24-.013-.378-.013-5.818-.004-11.556 1.212-16.543 5.481l-.006.005v-3.747h.011V4.902a1.84 1.84 0 00-.59-1.34A2.097 2.097 0 00176.185 3h-6.605a2.12 2.12 0 00-1.427.562c-.378.35-.59.842-.59 1.342v18.979h.005v40.29h-.005v18.875c0 .501.218.994.59 1.34.38.358.902.563 1.433.563h6.601a2.09 2.09 0 001.429-.562c.384-.347.594-.84.594-1.341v-3.903c4.405 4.929 10.731 6.627 16.534 6.625h.407c7.057-.023 13.162-2.204 16.97-5.72 7.115-6.737 8.74-17.063 8.763-26.663-.018-9.546-1.648-18.68-8.644-25.392zm-1.983 25.39v.287c-.019 5.998-.654 11.86-2.935 16.052-2.243 4.036-5.849 6.73-12.85 6.837a1.548 1.548 0 00-.261 0h-.117c-7.048-.069-10.7-2.77-12.954-6.843-2.302-4.21-2.945-10.12-2.945-16.155V53.2c.006-5.996.643-10.809 2.945-15 2.254-4.073 5.906-6.776 12.954-6.841h.272c7.053.065 10.692 2.761 12.964 6.85 2.284 4.182 2.927 8.995 2.927 14.99v.186zm62.832 26.486c6.994-6.71 8.626-15.846 8.642-25.393-.023-9.596-1.648-19.924-8.763-26.66-3.806-3.518-9.91-5.699-16.969-5.722h-.408c-5.803-.002-12.126 1.697-16.534 6.627v-3.904c0-.502-.209-.992-.593-1.341a2.09 2.09 0 00-1.429-.563h-6.6c-.532 0-1.055.205-1.433.563a1.85 1.85 0 00-.591 1.34v18.877h.004v40.289h-.004v18.979c0 .499.211.992.591 1.341.38.357.901.562 1.425.562h6.605a2.09 2.09 0 001.432-.562c.376-.349.588-.842.588-1.341v-18.98h-.01v-3.745l.006.004c4.987 4.268 10.728 5.482 16.543 5.48.139 0 .284 0 .378-.012 7.076-.007 13.182-2.186 16.999-5.708.048-.044.084-.088.121-.131zm-1.984-25.202c0 5.995-.644 10.806-2.927 14.989-2.273 4.087-5.912 6.787-12.965 6.852h-.271c-7.048-.065-10.7-2.77-12.954-6.844-2.302-4.19-2.94-9.002-2.946-14.997v-.364c0-6.035.644-11.945 2.946-16.156 2.254-4.072 5.906-6.773 12.954-6.844h.117c.142.006.215.006.261 0 7.002.106 10.608 2.801 12.849 6.837 2.282 4.195 2.919 10.055 2.936 16.053v.474zm96.757 36.043a98.734 98.734 0 01-2.319 5.64s-1.255 2.765-3.035 4.549c-1.63 1.627-3.488 2.751-5.586 3.371-2.092.621-3.466.717-3.466.717-1.675.117-4.117.215-5.427.215-1.312 0-2.386-1.374-2.386-3.05v-4.483c0-1.678.683-3.05 1.513-3.05.833 0 2.878-.142 4.545-.313 0 0 1.271-.134 2.432-1.026 1.166-.894 1.753-2.179 1.753-2.179a81.192 81.192 0 002.289-5.648l1.22-3.448c.56-1.581.545-4.163-.029-5.738l-18.488-50.528c-.576-1.574.326-2.864 2.004-2.864h6.459c1.677 0 3.491 1.3 4.029 2.89l12.109 35.735c.54 1.59 1.41 1.585 1.936-.007l11.807-35.72c.527-1.594 2.332-2.898 4.009-2.898h6.572c1.68 0 2.576 1.288 1.997 2.862l-23.938 64.973zm-30.269-47.253v-.044c.002-6.307-2.097-11.715-6.501-15.33-4.43-3.638-10.796-5.347-18.985-5.351h-.407c-8.605-.023-15.432 1.848-20.631 7.376l-.023-.017-.299.358c-.389.43-.773.88-1.149 1.353 0 .004-.004.011-.007.015l-.53.63a1.811 1.811 0 00-.411 1.397 2.11 2.11 0 00.714 1.347l.299.259c.115.136.242.265.384.38l1.162.956 3.096 2.675a2.03 2.03 0 001.422.505 1.788 1.788 0 001.295-.629l1.985-2.356v-.004c1.239-1.34 2.513-2.296 4.049-2.969 2.17-.948 4.955-1.395 8.98-1.433l.048-.002.134-.004c5.726.015 9.286 1.178 11.325 2.967 2.035 1.759 3.066 4.42 3.081 8.552 0 .027 0 .1.011.194v3.898h-16.997c-6.858.017-12.593 1.563-16.729 4.79-4.109 3.157-6.403 8.012-6.405 13.671l.002.213c.011 4.715 1.782 9.338 5.004 12.547 4.349 4.286 10.144 5.843 18.897 5.843h4.535c8.018.008 13.771-1.974 17.475-5.966 3.697-3.988 5.178-9.767 5.178-16.942V43.565l-.002-.106zm-40.117 23.259v-.144c.033-3.198 1.008-5.197 2.843-6.603 1.92-1.462 5.152-2.409 9.991-2.409h16.325v5.072c-.017 4.976-1.11 7.726-2.57 9.008-3.533 3.255-7.903 3.744-13.23 3.757h-.155c-5.13.004-8.498-.882-10.407-2.27-1.818-1.31-2.751-3.183-2.797-6.411zM99.331 22.998c-1.755 0-3.579 1.38-4.057 3.064L83.728 66.784c-.479 1.69-1.318 1.704-1.866.04l-13.43-40.8c-.545-1.664-2.428-3.026-4.18-3.026h-2.409c-1.752 0-3.633 1.362-4.175 3.029L44.346 66.823c-.546 1.666-1.385 1.653-1.868-.035L30.83 26.064c-.483-1.685-2.313-3.066-4.066-3.066h-4.907c-1.75 0-2.751 1.368-2.223 3.04L37.453 82.23c.53 1.67 2.396 3.04 4.15 3.04h3.37c1.565 0 3.251-1.214 3.748-2.698l13.318-39.75c.557-1.66 1.472-1.66 2.035-.002l13.313 39.43c.562 1.657 2.455 3.02 4.205 3.02h3.26c1.626 0 3.352-1.269 3.84-2.816l17.774-56.415c.526-1.673-.476-3.041-2.227-3.041h-4.907zm20.389 25.579c.221-3.875.501-5.61 1.686-8.52 2.177-5.157 7.165-8.36 13.019-8.36 5.851 0 10.837 3.2 13.016 8.35 1.187 2.92 1.467 4.655 1.686 8.53H119.72zm40.295 3.59c0-18.48-9.806-29.965-25.59-29.965-16.024 0-25.591 11.841-25.591 31.668 0 20.418 9.651 31.666 27.17 31.666 10.882 0 16.721-3.65 22.614-9.54l.783-.782-7.522-6.603-.688.687c-4.801 4.8-8.713 6.503-14.943 6.503-10.376 0-16.252-6.595-16.57-18.584h40.337v-5.05z" fill="#6B1A6B"/><path d="M6.33 35.894c3.497 0 6.338-2.856 6.338-6.378 0-3.52-2.841-6.378-6.338-6.378-3.489 0-6.33 2.858-6.33 6.378 0 3.522 2.841 6.378 6.33 6.378zm385.148 49.338c3.499 0 6.338-2.856 6.338-6.373 0-3.525-2.839-6.385-6.338-6.385-3.491 0-6.326 2.86-6.326 6.385 0 3.517 2.835 6.373 6.326 6.373zm35.939-55.374H420.4v10.524h7.017c3.401 0 5.561-2.104 5.561-5.235 0-3.131-2.16-5.29-5.561-5.29zm.378 17.271H420.4v14.465h-7.502v-38.43h14.897c7.934 0 12.685 5.45 12.685 11.983 0 6.53-4.751 11.983-12.685 11.983zm17.038 14.466v-38.43h7.501v31.736h17.434v6.694h-24.935zm41.012.323c-7.88 0-14.141-5.344-14.141-13.493v-25.26h7.503v24.99c0 4.425 2.591 7.07 6.638 7.07 4.048 0 6.695-2.645 6.695-7.07v-24.99h7.447v25.26c0 8.15-6.26 13.493-14.142 13.493zm33.175.068c-5.821 0-10.241-1.24-14.014-5.066l4.85-4.85c2.426 2.424 5.714 3.232 9.27 3.232 4.42 0 6.793-1.671 6.793-4.742 0-1.349-.378-2.48-1.186-3.236-.754-.7-1.617-1.078-3.397-1.347l-4.636-.645c-3.286-.487-5.711-1.51-7.436-3.182-1.833-1.832-2.749-4.312-2.749-7.546 0-6.845 5.065-11.642 13.367-11.642 5.281 0 9.108 1.294 12.397 4.473l-4.743 4.69c-2.425-2.317-5.337-2.64-7.869-2.64-3.99 0-5.929 2.21-5.929 4.85 0 .971.322 1.995 1.132 2.75.755.701 1.994 1.292 3.556 1.508l4.527.647c3.505.485 5.716 1.456 7.332 2.965 2.048 1.94 2.965 4.744 2.965 8.138 0 7.44-6.201 11.642-14.23 11.642z" fill="#D6006D"/></g><defs><clipPath id="clip0"><path fill="#fff" d="M0 0h534v134H0z"/></clipPath></defs></svg>